<svg width="39" height="49" viewBox="0 0 39 49" fill="none" xmlns="http://www.w3.org/2000/svg">
<path d="M33.8333 9.66667H29C29 4.32583 24.6742 0 19.3333 0C13.9925 0 9.66667 4.32583 9.66667 9.66667H4.83333C2.175 9.66667 0 11.8417 0 14.5V43.5C0 46.1583 2.175 48.3333 4.83333 48.3333H33.8333C36.4917 48.3333 38.6667 46.1583 38.6667 43.5V14.5C38.6667 11.8417 36.4917 9.66667 33.8333 9.66667ZM14.5 19.3333C14.5 20.6625 13.4125 21.75 12.0833 21.75C10.7542 21.75 9.66667 20.6625 9.66667 19.3333V14.5H14.5V19.3333ZM19.3333 4.83333C21.9917 4.83333 24.1667 7.00833 24.1667 9.66667H14.5C14.5 7.00833 16.675 4.83333 19.3333 4.83333ZM29 19.3333C29 20.6625 27.9125 21.75 26.5833 21.75C25.2542 21.75 24.1667 20.6625 24.1667 19.3333V14.5H29V19.3333Z" fill="#323232"/>
</svg>
